<svg width="26" height="24" viewBox="0 0 26 24" fill="none" xmlns="http://www.w3.org/2000/svg">
<path d="M4.5 11.5L12 4L19.5 11.5L12 19L4.5 11.5Z" fill="#12F3AF"/>
<path d="M24.3711 2.75749C24.3711 2.02616 24.0792 1.32478 23.5597 0.807651C23.0401 0.290521 22.3354 0 21.6006 0C20.363 0 19.3276 0.812993 18.9718 1.92742H5.89935C5.54352 0.812993 4.50811 0 3.27054 0C2.53575 0 1.83105 0.290521 1.31147 0.807651C0.791896 1.32478 0.5 2.02616 0.5 2.75749C0.501234 3.34201 0.689761 3.9109 1.03817 4.38145C1.38658 4.852 1.87671 5.19967 2.43729 5.37392V18.3848C1.87671 18.559 1.38658 18.9067 1.03817 19.3773C0.689761 19.8478 0.501234 20.4167 0.5 21.0012C0.5 21.7325 0.791896 22.4339 1.31147 22.9511C1.83105 23.4682 2.53575 23.7587 3.27054 23.7587C4.39398 23.7587 5.35554 23.0905 5.79044 22.1342H19.0807C19.2989 22.6177 19.6528 23.0283 20.0999 23.3165C20.5469 23.6046 21.068 23.7582 21.6006 23.7587C21.9767 23.9267 22.3858 24.0089 22.798 23.9992C23.2101 23.9896 23.6149 23.8885 23.9827 23.7032C24.3505 23.5179 24.6721 23.2531 24.9239 22.9282C25.1757 22.6033 25.3514 22.2266 25.4381 21.8254C25.5248 21.4243 25.5204 21.0089 25.4251 20.6097C25.3298 20.2105 25.1461 19.8375 24.8874 19.5181C24.6287 19.1986 24.3015 18.9407 23.9298 18.7633C23.5581 18.5858 23.1512 18.4933 22.7389 18.4924V5.26552C23.2248 5.04831 23.6373 4.69608 23.9268 4.25117C24.2163 3.80625 24.3706 3.28759 24.3711 2.75749ZM21.993 18.2831C21.8639 18.2645 21.7349 18.2437 21.6006 18.2437C20.8658 18.2437 20.1611 18.5342 19.6415 19.0514C19.1219 19.5685 18.83 20.2699 18.83 21.0012C18.83 21.1349 18.8509 21.2633 18.8696 21.3917H6.00155C6.0202 21.2633 6.04109 21.1349 6.04109 21.0012C6.04109 20.2699 5.74919 19.5685 5.22961 19.0514C4.71004 18.5342 4.00534 18.2437 3.27054 18.2437C3.2407 18.2437 3.2131 18.2511 3.18326 18.2526V5.50608C3.2131 5.50682 3.2407 5.51499 3.27054 5.51499C4.00534 5.51499 4.71004 5.22447 5.22961 4.70734C5.74919 4.19021 6.04109 3.48883 6.04109 2.75749C6.04109 2.7278 6.03288 2.69958 6.03214 2.67063H18.839C18.8383 2.70033 18.83 2.7278 18.83 2.75749C18.83 3.48883 19.1219 4.19021 19.6415 4.70734C20.1611 5.22447 20.8658 5.51499 21.6006 5.51499C21.7349 5.51499 21.8632 5.4942 21.993 5.47564V18.2831Z" fill="#12F3AF"/>
</svg>
