<svg width="148" height="46" viewBox="0 0 148 46" fill="none" xmlns="http://www.w3.org/2000/svg">
<path d="M8.5 22.5L16 15L23.5 22.5L16 30L8.5 22.5Z" fill="#12F3AF"/>
<path d="M28.3711 13.7575C28.3711 13.0262 28.0792 12.3248 27.5597 11.8077C27.0401 11.2905 26.3354 11 25.6006 11C24.363 11 23.3276 11.813 22.9718 12.9274H9.89935C9.54352 11.813 8.50811 11 7.27054 11C6.53575 11 5.83105 11.2905 5.31147 11.8077C4.7919 12.3248 4.5 13.0262 4.5 13.7575C4.50123 14.342 4.68976 14.9109 5.03817 15.3815C5.38658 15.852 5.87671 16.1997 6.43729 16.3739V29.3848C5.87671 29.559 5.38658 29.9067 5.03817 30.3773C4.68976 30.8478 4.50123 31.4167 4.5 32.0012C4.5 32.7325 4.7919 33.4339 5.31147 33.9511C5.83105 34.4682 6.53575 34.7587 7.27054 34.7587C8.39398 34.7587 9.35554 34.0905 9.79044 33.1342H23.0807C23.2989 33.6177 23.6528 34.0283 24.0999 34.3165C24.5469 34.6046 25.068 34.7582 25.6006 34.7587C25.9767 34.9267 26.3858 35.0089 26.798 34.9992C27.2101 34.9896 27.6149 34.8885 27.9827 34.7032C28.3505 34.5179 28.6721 34.2531 28.9239 33.9282C29.1757 33.6033 29.3514 33.2266 29.4381 32.8254C29.5248 32.4243 29.5204 32.0089 29.4251 31.6097C29.3298 31.2105 29.1461 30.8375 28.8874 30.5181C28.6287 30.1986 28.3015 29.9407 27.9298 29.7633C27.5581 29.5858 27.1512 29.4933 26.7389 29.4924V16.2655C27.2248 16.0483 27.6373 15.6961 27.9268 15.2512C28.2163 14.8063 28.3706 14.2876 28.3711 13.7575ZM25.993 29.2831C25.8639 29.2645 25.7349 29.2437 25.6006 29.2437C24.8658 29.2437 24.1611 29.5342 23.6415 30.0514C23.1219 30.5685 22.83 31.2699 22.83 32.0012C22.83 32.1349 22.8509 32.2633 22.8696 32.3917H10.0016C10.0202 32.2633 10.0411 32.1349 10.0411 32.0012C10.0411 31.2699 9.74919 30.5685 9.22961 30.0514C8.71004 29.5342 8.00534 29.2437 7.27054 29.2437C7.2407 29.2437 7.2131 29.2511 7.18326 29.2526V16.5061C7.2131 16.5068 7.2407 16.515 7.27054 16.515C8.00534 16.515 8.71004 16.2245 9.22961 15.7073C9.74919 15.1902 10.0411 14.4888 10.0411 13.7575C10.0411 13.7278 10.0329 13.6996 10.0321 13.6706H22.839C22.8383 13.7003 22.83 13.7278 22.83 13.7575C22.83 14.4888 23.1219 15.1902 23.6415 15.7073C24.1611 16.2245 24.8658 16.515 25.6006 16.515C25.7349 16.515 25.8632 16.4942 25.993 16.4756V29.2831Z" fill="#12F3AF"/>
<path d="M38.9351 30.7422V24.6584L33.5 15H38.3812L41.2372 21.3759L43.8855 15H48.9917L43.4182 24.6584V30.7422H38.9351ZM54.9807 17.9216C55.7077 17.9216 56.5039 18.019 57.3694 18.2137C58.2464 18.42 59.0599 18.7752 59.81 19.2793C60.5601 19.7834 61.189 20.4594 61.6967 21.3072C62.1929 22.155 62.441 23.232 62.441 24.5381C62.441 25.8328 62.1929 26.8983 61.6967 27.7347C61.189 28.5711 60.5601 29.2299 59.81 29.7111C59.0599 30.1923 58.2464 30.5303 57.3694 30.725C56.5039 30.9083 55.7077 31 54.9807 31C54.2537 31 53.4633 30.9083 52.6094 30.725C51.7439 30.5303 50.9477 30.1923 50.2207 29.7111C49.4822 29.2299 48.8648 28.5711 48.3686 27.7347C47.8609 26.8983 47.607 25.8328 47.607 24.5381C47.607 23.6674 47.7224 22.9055 47.9532 22.2524C48.1955 21.5879 48.5071 21.015 48.8879 20.5338C49.2687 20.0412 49.713 19.6287 50.2207 19.2965C50.7284 18.9527 51.2535 18.6835 51.7958 18.4887C52.3382 18.2825 52.8805 18.1393 53.4229 18.0591C53.9768 17.9674 54.4961 17.9216 54.9807 17.9216ZM54.9807 27.9925C55.8693 27.9925 56.5732 27.7404 57.0924 27.2363C57.6002 26.7207 57.8541 25.8213 57.8541 24.5381C57.8541 23.232 57.6002 22.304 57.0924 21.754C56.5847 21.2041 55.8808 20.9291 54.9807 20.9291C54.0691 20.9291 53.3767 21.2041 52.9036 21.754C52.4305 22.304 52.1939 23.232 52.1939 24.5381C52.1939 25.8213 52.4305 26.7207 52.9036 27.2363C53.3767 27.7404 54.0691 27.9925 54.9807 27.9925ZM69.8839 31C69.2377 31 68.5915 30.937 67.9453 30.811C67.3106 30.6849 66.7394 30.4214 66.2317 30.0204C65.724 29.6194 65.3086 29.0523 64.9854 28.319C64.6623 27.5743 64.5008 26.5832 64.5008 25.3459V18.2309H68.5511V23.9023C68.5511 25.0938 68.7415 25.9989 69.1223 26.6176C69.5147 27.2363 70.0744 27.5457 70.8013 27.5457C71.3206 27.5457 71.7591 27.4311 72.1168 27.2019C72.463 26.9842 72.7457 26.6749 72.965 26.2739C73.1842 25.8844 73.3458 25.4146 73.4496 24.8647C73.542 24.3262 73.5881 23.7361 73.5881 23.0945V18.2309H77.95V30.7422H74.6786L73.9516 28.3878C73.9516 28.3878 73.8766 28.5252 73.7266 28.8002C73.5881 29.0637 73.3573 29.3616 73.0342 29.6939C72.7111 30.0261 72.2899 30.3298 71.7707 30.6047C71.2514 30.8682 70.6225 31 69.8839 31ZM97.6998 17.9216C98.8192 17.9216 99.6789 18.0992 100.279 18.4543C100.891 18.821 101.329 19.2735 101.594 19.812C101.871 20.362 102.033 20.9578 102.079 21.5994C102.137 22.241 102.166 22.8482 102.166 23.4211V30.7422H97.8729V30.725L97.8383 24.2975C97.8383 23.4955 97.6768 22.8367 97.3537 22.3212C97.0306 21.8056 96.5344 21.5478 95.8651 21.5478C95.3458 21.5478 94.9304 21.6624 94.6188 21.8915C94.3188 22.1092 94.088 22.3899 93.9264 22.7336C93.7649 23.0888 93.661 23.4669 93.6149 23.8679C93.5802 24.2689 93.5629 24.6412 93.5629 24.985V30.7422H89.2356V30.725H89.2183V24.2632C89.2183 23.4612 89.0568 22.8081 88.7337 22.304C88.4106 21.7884 87.9086 21.5306 87.2278 21.5306C86.7085 21.5306 86.3046 21.6395 86.0161 21.8571C85.7161 22.0863 85.4911 22.3727 85.3411 22.7164C85.1911 23.0602 85.0987 23.4325 85.0641 23.8335C85.018 24.2345 84.9949 24.6126 84.9949 24.9678V30.7422H80.6157V18.2309H84.1987L84.6314 20.5166C84.6314 20.5166 84.7006 20.3849 84.8391 20.1214C84.9776 19.8579 85.2199 19.56 85.5661 19.2277C85.9007 18.8955 86.3623 18.5976 86.9508 18.334C87.5393 18.0591 88.2894 17.9216 89.201 17.9216C89.9857 17.9216 90.6377 18.0591 91.157 18.334C91.6762 18.5976 92.0859 18.8897 92.3859 19.2105C92.6975 19.5199 92.9167 19.7948 93.0437 20.0354C93.1706 20.276 93.2341 20.3734 93.2341 20.3276C93.2687 20.2818 93.361 20.1271 93.511 19.8636C93.6495 19.6115 93.886 19.3423 94.2207 19.0559C94.5553 18.758 95.0054 18.4945 95.5708 18.2653C96.1362 18.0362 96.8459 17.9216 97.6998 17.9216ZM116.896 22.6133V30.7422H113.434L112.984 28.8346C112.476 29.5908 111.905 30.1407 111.27 30.4844C110.636 30.8281 109.874 31 108.985 31C108.362 31 107.762 30.9255 107.185 30.7766C106.608 30.6276 106.106 30.4042 105.679 30.1063C105.241 29.8085 104.889 29.4361 104.624 28.9893C104.37 28.5424 104.243 28.0211 104.243 27.4253C104.231 26.6233 104.347 25.9474 104.589 25.3974C104.843 24.8589 105.189 24.4121 105.627 24.0569C106.077 23.7018 106.591 23.4268 107.168 23.232C107.756 23.0372 108.368 22.9055 109.003 22.8367C109.637 22.768 110.284 22.7336 110.941 22.7336C111.599 22.7451 112.216 22.768 112.793 22.8024V22.7336C112.793 22.1035 112.626 21.6395 112.291 21.3416C111.968 21.0437 111.559 20.8546 111.063 20.7744C110.566 20.6942 110.024 20.7 109.435 20.7916C108.847 20.8833 108.293 20.9979 107.774 21.1353C107.266 21.2843 106.822 21.4332 106.441 21.5822C106.072 21.7197 105.864 21.8056 105.818 21.84V18.8496C105.829 18.8382 105.985 18.7866 106.285 18.695C106.585 18.5918 106.96 18.483 107.41 18.3684C107.872 18.2653 108.374 18.1622 108.916 18.0591C109.47 17.9674 110.012 17.9216 110.543 17.9216C111.074 17.9216 111.703 17.9846 112.43 18.1106C113.157 18.2367 113.855 18.4715 114.524 18.8153C115.182 19.159 115.742 19.6402 116.203 20.2589C116.665 20.8661 116.896 21.6509 116.896 22.6133ZM112.776 25.6208V25.1568C112.245 25.1568 111.715 25.1625 111.184 25.174C110.664 25.1855 110.186 25.2313 109.747 25.3115C109.32 25.4032 108.98 25.5578 108.726 25.7755C108.472 25.9932 108.345 26.3083 108.345 26.7207C108.345 27.1676 108.478 27.517 108.743 27.7691C109.02 28.0211 109.332 28.1472 109.678 28.1472C110.128 28.1472 110.543 28.0841 110.924 27.9581C111.305 27.8206 111.628 27.6373 111.893 27.4082C112.17 27.179 112.384 26.9098 112.534 26.6004C112.695 26.3025 112.776 25.976 112.776 25.6208ZM126.312 28.1128C126.543 28.1128 126.774 28.1071 127.004 28.0956C127.224 28.0841 127.426 28.0612 127.61 28.0269C127.818 27.9925 128.02 27.9524 128.216 27.9066L128.164 30.6219C127.887 30.6907 127.593 30.7537 127.281 30.811C127.016 30.8568 126.699 30.9026 126.329 30.9484C125.972 30.9828 125.579 31 125.152 31C124.344 30.9542 123.617 30.788 122.971 30.5016C122.694 30.3756 122.429 30.2152 122.175 30.0204C121.921 29.8256 121.69 29.585 121.483 29.2986C121.287 29.0122 121.125 28.6799 120.998 28.3018C120.883 27.9237 120.825 27.4769 120.825 26.9613V22.2009H118.35V19.1418H120.894L121.673 15.2062H125.152V19.1418H128.251V22.2009H125.204V27.0129C125.239 27.4139 125.348 27.7003 125.533 27.8722C125.718 28.0326 125.977 28.1128 126.312 28.1128ZM138.117 17.9216C138.763 17.9216 139.403 17.9846 140.038 18.1106C140.684 18.2367 141.261 18.5002 141.769 18.9012C142.277 19.3022 142.692 19.875 143.015 20.6198C143.338 21.3645 143.5 22.3498 143.5 23.5757V30.7422H139.45V25.0193C139.45 23.8278 139.259 22.9227 138.878 22.304C138.486 21.6853 137.926 21.3759 137.199 21.3759C136.68 21.3759 136.242 21.4905 135.884 21.7197C135.538 21.9488 135.255 22.2639 135.036 22.6649C134.817 23.0659 134.655 23.5356 134.551 24.0741C134.459 24.6011 134.413 25.1855 134.413 25.8271V30.7422H130.068V15.3609H134.049V20.5338C134.049 20.5338 134.124 20.4021 134.274 20.1386C134.413 19.8636 134.643 19.56 134.967 19.2277C135.29 18.8955 135.711 18.5976 136.23 18.334C136.749 18.0591 137.378 17.9216 138.117 17.9216Z" fill="white"/>
</svg>
